# xmcd
# 
# Track frame offsets:
#     150
#     26603
#     44041
#     62383
#     76417
#     114811
#     129118
#     144820
#     160924
#     190348
#     205188
#     222203
# 
# Disc length: 3104
# 
# Revision: 3
# Processed by: cddbd v1.5.2PL0 Copyright (c) Steve Scherf et al.
# Submitted via: fre:ac v1.0.31
# 
DISCID=9a0c1e0c
DTITLE=Maria Muldaur - A Woman Alone With The Blues
DYEAR=2003
DGENRE=Blues
TTITLE0=Fever
TTITLE1=I Don't Know Enough About You
TTITLE2=Moments Like This
TTITLE3=Winter Weather
TTITLE4=Some Cats Know
TTITLE5=Everything Is Moving Too Fast
TTITLE6=Waitin' For The Train To Come In
TTITLE7=The Freedom Train
TTITLE8=Black Coffee
TTITLE9=A Woman Alone With The Blues
TTITLE10=For Every Man There's A Woman
TTITLE11=I'm Gonna Go Fishin'
EXTD=
EXTT0=
EXTT1=
EXTT2=
EXTT3=
EXTT4=
EXTT5=
EXTT6=
EXTT7=
EXTT8=
EXTT9=
EXTT10=
EXTT11=
PLAYORDER=
